<svg xmlns="http://www.w3.org/2000/svg" version="1.1" xmlns:xlink="http://www.w3.org/1999/xlink" xmlns:svgjs="http://svgjs.dev/svgjs" width="1000" height="1000" viewBox="0 0 1000 1000"><rect width="1000" height="1000" fill="#ffffff"></rect><g transform="matrix(0.7,0,0,0.7,149.57575757575756,282.1265587044535)"><svg viewBox="0 0 396 247" data-background-color="#dedede" preserveAspectRatio="xMidYMid meet" height="623" width="1000" xmlns="http://www.w3.org/2000/svg" xmlns:xlink="http://www.w3.org/1999/xlink"><g id="tight-bounds" transform="matrix(1,0,0,1,0.2400000000000091,-0.09999999999999432)"><svg viewBox="0 0 395.52 247.2" height="247.2" width="395.52"><g><svg></svg></g><g><svg viewBox="0 0 395.52 247.2" height="247.2" width="395.52"><g transform="matrix(1,0,0,1,82.24959582790092,37.08)"><svg viewBox="0 0 231.02080834419814 173.04" height="173.04" width="231.02080834419814"><g><svg viewBox="0 0 231.02080834419814 173.04" height="173.04" width="231.02080834419814"><g><svg viewBox="0 0 231.02080834419814 173.04" height="173.04" width="231.02080834419814"><g><svg viewBox="0 0 231.02080834419814 173.04" height="173.04" width="231.02080834419814"><g><svg viewBox="0 0 231.02080834419814 173.04" height="173.04" width="231.02080834419814"><g><svg viewBox="0 0 231.02080834419814 173.04" height="173.04" width="231.02080834419814"><g transform="matrix(1,0,0,1,0,0)"><svg width="231.02080834419814" viewBox="2 -35.7400016784668 50 37.45000076293945" height="173.04" data-palette-color="#111111"><path d="M2.78-35.06L2.78-35.06 4.98-35.64Q4.98-34.08 5.03-33.89L5.03-33.89Q7.81-35.74 12.84-35.74L12.84-35.74Q18.26-35.74 20.95-32.35 23.63-28.96 23.63-22.85L23.63-22.85Q23.63-17.43 21-13.87 18.36-10.3 13.04-10.3L13.04-10.3Q12.16-10.3 6.01-10.89L6.01-10.89Q6.1-7.32 6.4 0.2L6.4 0.2Q5.96 1.71 4.69 1.71L4.69 1.71Q3.81 1.71 3 1 2.2 0.29 2-0.73L2-0.73Q2.15-4.83 2.32-16.7 2.49-28.56 2.78-35.06ZM5.47-30.62L5.47-30.62 5.86-15.38Q8.54-13.92 12.06-13.92L12.06-13.92Q15.43-13.92 17.77-16.46 20.12-18.99 20.12-22.66L20.12-22.66Q20.12-26.61 17.68-29.79 15.23-32.96 11.57-32.96L11.57-32.96Q8.59-32.96 5.47-30.62ZM40.96-19.34L40.96-19.34Q41.16-16.6 41.26-12.87 41.35-9.13 41.43-5.32 41.5-1.51 41.55-0.15L41.55-0.15Q40.48 0.15 39.55 0.15L39.55 0.15Q38.82 0.15 38.18-0.1L38.18-0.1Q38.03-2 37.99-4.44 37.94-6.88 37.94-8.76 37.94-10.64 37.86-12.7 37.79-14.75 37.6-16.21 37.4-17.68 37.01-18.92 36.62-20.17 35.91-20.85 35.2-21.53 34.18-21.58L34.18-21.58Q33.15-21.58 32.52-21.14 31.88-20.7 31.15-19.53L31.15-19.53 31.15-0.2Q30.42 0.2 29.39 0.2L29.39 0.2Q28.61 0.2 27.63-0.05L27.63-0.05Q27.78-3.13 27.83-12.16 27.88-21.19 28.22-25.54L28.22-25.54 30.42-25.05 30.56-22.56Q32.03-24.85 34.27-24.85L34.27-24.85Q37.6-24.85 39.89-21.92L39.89-21.92Q41.31-24.85 44.48-24.85L44.48-24.85Q45.75-24.85 46.68-24.56L46.68-24.56Q52-23.05 52-10.94L52-10.94Q52-9.18 51.88-6.23 51.76-3.27 51.76-2.25L51.76-2.25Q51.76-0.88 51.9 0L51.9 0Q49.36 0.68 48.83 0.68L48.83 0.68Q48.34 0.68 48.14 0.59L48.14 0.59Q47.95-0.05 47.95-1.76L47.95-1.76Q47.95-2.83 48.09-6.18 48.24-9.52 48.24-11.43L48.24-11.43Q48.24-21.58 44.24-21.68L44.24-21.68Q43.31-21.63 42.62-21.12 41.94-20.61 40.96-19.34Z" opacity="1" transform="matrix(1,0,0,1,0,0)" fill="#000000" class="undefined-text-0" data-fill-palette-color="primary" id="text-0"></path></svg></g></svg></g></svg></g></svg></g></svg></g></svg></g></svg></g><g mask="url(#2eea0c60-b432-4423-bf91-fb79489ff133)"><g transform="matrix(1.2234232618281533, 0, 0, 1.2234232618281533, 80.036705206, 1)"><svg xmlns="http://www.w3.org/2000/svg" xmlns:xlink="http://www.w3.org/1999/xlink" version="1.1" x="0" y="0" viewBox="10.533992767333984 6.615780830383301 192.44900512695312 200.42123413085938" enable-background="new 0 0 213.768 213.043" xml:space="preserve" height="200.42123413085938" width="192.44900512695312" class="icon-none" data-fill-palette-color="accent" id="none"><g fill="#374151" data-fill-palette-color="accent"><circle fill="#000000" cx="39.854" cy="83.056" r="18" data-fill-palette-color="accent"></circle><path fill="#000000" d="M44.75 103.884l-2.717 3.579 4.325 24.917-5.903 7.462-5.998-6.979 4.253-25.404-2.749-3.745c-14.352 2.174-25.427 16.177-25.427 33.139 0 2.218 0.194 4.382 0.554 6.478h57.528c0.36-2.096 0.555-4.26 0.555-6.478C69.173 120.286 58.61 106.543 44.75 103.884z" data-fill-palette-color="accent"></path><path fill="#000000" d="M180.274 35.083l-0.024-1.119c1.288-0.027 2.56-0.242 3.775-0.638l0.348 1.063C183.051 34.819 181.673 35.053 180.274 35.083zM178.49 35.01c-1.389-0.142-2.744-0.488-4.029-1.026l0.434-1.031c1.182 0.496 2.431 0.813 3.711 0.945L178.49 35.01zM186.032 33.73l-0.476-1.011c1.159-0.548 2.23-1.262 3.188-2.125l0.748 0.831C188.455 32.36 187.291 33.136 186.032 33.73zM172.858 33.189c-1.206-0.696-2.302-1.563-3.259-2.579l0.813-0.766c0.882 0.935 1.894 1.736 3.005 2.377L172.858 33.189zM190.742 30.148l-0.847-0.73c0.841-0.975 1.532-2.064 2.054-3.234l1.021 0.456C192.406 27.909 191.655 29.09 190.742 30.148zM168.458 29.236c-0.823-1.127-1.475-2.367-1.934-3.679l1.055-0.37c0.424 1.211 1.023 2.351 1.782 3.39L168.458 29.236zM193.594 24.963l-1.071-0.323c0.368-1.224 0.557-2.499 0.557-3.79v-0.058h1.117v0.058C194.197 22.25 193.995 23.635 193.594 24.963zM166.041 23.835c-0.208-0.974-0.314-1.978-0.314-2.985 0-0.385 0.016-0.776 0.048-1.161l1.114 0.089c-0.028 0.356-0.043 0.716-0.043 1.072 0 0.928 0.098 1.854 0.288 2.751L166.041 23.835zM192.97 19.152c-0.165-1.275-0.517-2.515-1.043-3.684l1.021-0.46c0.572 1.271 0.952 2.617 1.132 4.001L192.97 19.152zM167.124 18.149l-1.095-0.229c0.285-1.364 0.771-2.677 1.44-3.9l0.981 0.538C167.832 15.685 167.386 16.893 167.124 18.149zM191.159 14.014c-0.67-1.094-1.496-2.084-2.454-2.942l0.746-0.833c1.04 0.93 1.935 2.004 2.66 3.192L191.159 14.014zM169.33 13.166l-0.905-0.657c0.817-1.127 1.793-2.129 2.9-2.977l0.68 0.889C170.984 11.202 170.084 12.126 169.33 13.166zM187.411 10.052c-1.059-0.731-2.215-1.301-3.436-1.694l0.342-1.064c1.325 0.426 2.58 1.044 3.729 1.839L187.411 10.052zM173.372 9.507l-0.563-0.967c1.208-0.703 2.507-1.221 3.862-1.542l0.258 1.087C175.68 8.381 174.484 8.86 173.372 9.507zM182.38 7.956c-1.248-0.233-2.561-0.282-3.829-0.147l-0.119-1.112c1.376-0.148 2.798-0.093 4.153 0.159L182.38 7.956z" data-fill-palette-color="accent"></path><g fill="#374151" data-fill-palette-color="accent"><path fill="#000000" d="M181.527 41.489l-0.376-2.167 2.114-2.817 0.095-0.554 0.555 0.099c0.656 0.116 1.317 0.27 1.961 0.452l-0.306 1.076c-0.47-0.133-0.949-0.25-1.429-0.347l-1.806 2.38 0.294 1.688L181.527 41.489z" data-fill-palette-color="accent"></path><path fill="#000000" d="M183.773 54.428l-0.786-4.529 1.102-0.191 0.786 4.529L183.773 54.428zM182.65 47.958l-0.786-4.528 1.103-0.192 0.785 4.53L182.65 47.958z" data-fill-palette-color="accent"></path><polygon fill="#000000" points="184.219,60.083 183.342,59.389 184.401,58.051 184.109,56.368 185.21,56.178 185.589,58.352   " data-fill-palette-color="accent"></polygon><polygon fill="#000000" points="180.574,64.692 178.857,62.693 179.705,61.964 180.539,62.934 181.332,61.931 182.209,62.624       " data-fill-palette-color="accent"></polygon><polygon fill="#000000" points="176.898,60.414 175.452,58.729 175.819,56.542 176.922,56.726 176.641,58.398 177.747,59.683       " data-fill-palette-color="accent"></polygon><path fill="#000000" d="M177.155 55.34l-1.104-0.184 0.541-3.233 1.103 0.184L177.155 55.34zM177.927 50.722l-1.103-0.185 0.541-3.233 1.103 0.185L177.927 50.722zM178.701 46.104l-1.104-0.184 0.541-3.233 1.104 0.184L178.701 46.104z" data-fill-palette-color="accent"></path><path fill="#000000" d="M179.472 41.486l-1.103-0.186 0.285-1.697-1.78-2.424c-0.496 0.093-0.991 0.207-1.478 0.339l-0.294-1.079c0.646-0.177 1.309-0.32 1.967-0.431l0.545-0.09 0.091 0.501 2.13 2.901L179.472 41.486z" data-fill-palette-color="accent"></path><path fill="#000000" d="M157.801 62.724c-0.019-0.424-0.027-0.852-0.027-1.284 0-0.887 0.04-1.78 0.119-2.658l1.114 0.101c-0.077 0.845-0.116 1.706-0.116 2.558 0 0.415 0.01 0.826 0.027 1.235L157.801 62.724zM159.2 57.268l-1.106-0.165c0.195-1.302 0.48-2.599 0.853-3.853l1.071 0.317C159.662 54.771 159.387 56.016 159.2 57.268zM160.525 52.023l-1.052-0.382c0.451-1.242 0.993-2.456 1.612-3.606l0.986 0.531C161.477 49.668 160.957 50.832 160.525 52.023zM162.884 47.162l-0.947-0.592c0.704-1.127 1.494-2.198 2.35-3.182l0.843 0.733C164.315 45.061 163.559 46.085 162.884 47.162zM166.233 42.937l-0.792-0.791c0.943-0.944 1.961-1.805 3.026-2.558l0.646 0.914C168.099 41.218 167.13 42.037 166.233 42.937zM170.465 39.623l-0.572-0.961c1.147-0.684 2.353-1.258 3.585-1.707l0.383 1.052C172.695 38.431 171.553 38.975 170.465 39.623z" data-fill-palette-color="accent"></path><path fill="#000000" d="M160.708 66.871h-2.429l-0.08-0.465c-0.112-0.649-0.202-1.314-0.271-1.975l1.111-0.115c0.051 0.479 0.112 0.961 0.186 1.436h1.483V66.871z" data-fill-palette-color="accent"></path><path fill="#000000" d="M198.433 66.871h-3.772v-1.119h3.772V66.871zM193.042 66.871h-3.771v-1.119h3.771V66.871zM187.655 66.871h-3.772v-1.119h3.772V66.871zM182.264 66.871h-3.772v-1.119h3.772V66.871zM176.875 66.871h-3.772v-1.119h3.772V66.871zM171.486 66.871h-3.772v-1.119h3.772V66.871zM166.096 66.871h-3.772v-1.119h3.772V66.871z" data-fill-palette-color="accent"></path><path fill="#000000" d="M202.478 66.871h-2.429v-1.119h1.481c0.075-0.479 0.137-0.961 0.186-1.436l1.113 0.115c-0.067 0.653-0.159 1.318-0.272 1.975L202.478 66.871z" data-fill-palette-color="accent"></path><path fill="#000000" d="M202.953 62.753l-1.117-0.05c0.019-0.417 0.028-0.839 0.028-1.262 0-0.835-0.037-1.677-0.11-2.506l1.114-0.098c0.076 0.861 0.115 1.737 0.115 2.604C202.983 61.881 202.973 62.318 202.953 62.753zM201.566 57.33c-0.184-1.245-0.453-2.483-0.804-3.68l1.074-0.313c0.363 1.245 0.645 2.535 0.835 3.83L201.566 57.33zM200.264 52.115c-0.426-1.188-0.938-2.345-1.521-3.441l0.988-0.525c0.608 1.143 1.142 2.351 1.587 3.587L200.264 52.115zM197.941 47.275c-0.663-1.074-1.407-2.096-2.212-3.035l0.849-0.728c0.843 0.984 1.621 2.051 2.314 3.175L197.941 47.275zM194.64 43.052c-0.887-0.899-1.842-1.721-2.843-2.441l0.652-0.908c1.053 0.757 2.057 1.621 2.986 2.565L194.64 43.052zM190.458 39.723c-1.074-0.654-2.203-1.205-3.354-1.64l0.393-1.045c1.218 0.458 2.41 1.04 3.545 1.731L190.458 39.723z" data-fill-palette-color="accent"></path></g><circle fill="#000000" cx="179.545" cy="161.717" r="14" data-fill-palette-color="accent"></circle><path fill="#000000" d="M183.226 177.378l-2.042 2.69 3.252 18.736-4.438 5.611-4.51-5.249 3.197-19.101-2.067-2.817c-10.79 1.634-19.118 12.163-19.118 24.918 0 1.668 0.146 3.295 0.418 4.871h43.257c0.271-1.576 0.417-3.203 0.417-4.871C201.591 189.712 193.649 179.377 183.226 177.378z" data-fill-palette-color="accent"></path><circle fill="#000000" cx="179.545" cy="91.318" r="14" data-fill-palette-color="accent"></circle><path fill="#000000" d="M183.226 106.98l-2.042 2.689 3.252 18.737-4.438 5.611-4.51-5.249 3.197-19.101-2.067-2.817c-10.79 1.634-19.118 12.163-19.118 24.918 0 1.666 0.146 3.295 0.418 4.871h43.257c0.271-1.576 0.417-3.205 0.417-4.871C201.591 119.314 193.649 108.98 183.226 106.98z" data-fill-palette-color="accent"></path><g fill="#374151" data-fill-palette-color="accent"><path fill="#000000" d="M81.488 79.045l-1.753-0.713c-0.638 1.571-1.23 3.187-1.762 4.802l1.798 0.591C80.288 82.149 80.866 80.576 81.488 79.045z" data-fill-palette-color="accent"></path><path fill="#000000" d="M88.512 65.874l-1.569-1.057c-0.946 1.406-1.858 2.863-2.709 4.333l1.638 0.947C86.701 68.664 87.588 67.244 88.512 65.874z" data-fill-palette-color="accent"></path><path fill="#000000" d="M93 59.903l-1.453-1.212c-1.086 1.303-2.142 2.66-3.138 4.031l1.531 1.112C90.911 62.495 91.939 61.172 93 59.903z" data-fill-palette-color="accent"></path><path fill="#000000" d="M98.073 54.425l-1.321-1.354c-1.213 1.184-2.402 2.423-3.534 3.688l1.41 1.261C95.73 56.787 96.889 55.578 98.073 54.425z" data-fill-palette-color="accent"></path><path fill="#000000" d="M79.035 86.102l-1.817-0.526c-0.472 1.631-0.894 3.296-1.252 4.95l1.849 0.401C78.165 89.314 78.575 87.69 79.035 86.102z" data-fill-palette-color="accent"></path><path fill="#000000" d="M77.33 93.366l-1.862-0.335c-0.3 1.662-0.548 3.362-0.736 5.053l1.88 0.208C76.795 96.645 77.037 94.987 77.33 93.366z" data-fill-palette-color="accent"></path><path fill="#000000" d="M84.66 72.276l-1.67-0.89c-0.799 1.5-1.557 3.045-2.248 4.59l1.726 0.773C83.142 75.246 83.88 73.739 84.66 72.276z" data-fill-palette-color="accent"></path><path fill="#000000" d="M137.478 34.7l-0.29-1.869c-1.677 0.26-3.363 0.583-5.018 0.957l0.419 1.845C134.199 35.267 135.844 34.954 137.478 34.7z" data-fill-palette-color="accent"></path><path fill="#000000" d="M144.903 33.935l-0.098-1.889c-1.694 0.088-3.405 0.234-5.088 0.436l0.227 1.879C141.582 34.163 143.251 34.021 144.903 33.935z" data-fill-palette-color="accent"></path><path fill="#000000" d="M130.172 36.223l-0.481-1.829c-1.64 0.432-3.287 0.927-4.892 1.472l0.606 1.79C126.971 37.127 128.575 36.645 130.172 36.223z" data-fill-palette-color="accent"></path><path fill="#000000" d="M116.237 41.486l-0.846-1.691c-1.516 0.76-3.022 1.581-4.481 2.443l0.961 1.628C113.292 43.028 114.762 42.228 116.237 41.486z" data-fill-palette-color="accent"></path><path fill="#000000" d="M123.063 38.497l-0.668-1.77c-1.584 0.598-3.167 1.259-4.708 1.967l0.789 1.718C119.978 39.723 121.521 39.079 123.063 38.497z" data-fill-palette-color="accent"></path><path fill="#000000" d="M109.751 45.167l-1.017-1.595c-1.426 0.909-2.842 1.882-4.207 2.89l1.123 1.522C106.982 47 108.362 46.052 109.751 45.167z" data-fill-palette-color="accent"></path><path fill="#000000" d="M103.675 49.495l-1.175-1.482c-1.328 1.053-2.638 2.166-3.89 3.307l1.272 1.398C101.105 51.606 102.38 50.521 103.675 49.495z" data-fill-palette-color="accent"></path><polygon fill="#000000" points="142.614,37.629 143.952,38.967 148.688,34.23 153.578,39.121 154.917,37.784 150.027,32.893     154.763,28.156 153.424,26.819 148.688,31.556 143.798,26.666 142.459,28.004 147.35,32.893   " data-fill-palette-color="accent"></polygon><path fill="#000000" d="M154.156 104.704l-10.5-6.063v5.094H80.197c-0.417-2.371-2.482-4.174-4.973-4.174-2.792 0-5.055 2.264-5.055 5.055 0 2.493 1.807 4.559 4.181 4.974 0.802 18.834 8.587 36.42 22.065 49.728 12.718 12.553 29.181 19.987 46.835 21.255v5.385l10.501-6.062-10.5-6.063v4.84c-36.23-2.731-65.397-32.504-67.008-69.105 1.976-0.404 3.531-1.962 3.934-3.938h63.479v5.14L154.156 104.704z" data-fill-palette-color="accent"></path></g></g></svg></g></g></svg></g><defs><mask id="e5694aff-c6c0-488e-9d70-adb224394a02"><rect width="640" height="400" fill="white"></rect><rect width="254.12288917861798" height="254.74118208" fill="black" x="192.938555410691" y="72.62940896" id="transform-me" transform="matrix(1,0,0,1,-122.24000000000001,-76.4)"></rect></mask><mask id="2eea0c60-b432-4423-bf91-fb79489ff133"><rect width="640" height="400" fill="white"></rect><rect width="254.12288917861798" height="254.74118208" fill="black" x="192.938555410691" y="72.62940896" id="transform-me" transform="matrix(1,0,0,1,-122.24000000000001,-76.4)"></rect></mask></defs></svg><rect width="395.52" height="247.2" fill="none" stroke="none" visibility="hidden"></rect></g></svg></g></svg>